<svg width="48" height="50" viewBox="0 0 48 50" fill="none" xmlns="http://www.w3.org/2000/svg">
<rect x="9" width="30" height="30" rx="15" fill="#F0303F"/>
<path fill-rule="evenodd" clip-rule="evenodd" d="M16.8939 18.9205H13.7356V11.1478H16.8939C18.8163 11.1478 19.9149 11.966 19.9149 13.3296C19.9149 14.0796 19.4342 14.5569 18.7477 14.8296C19.9149 15.1023 20.4641 15.7842 20.4641 16.6705C20.3954 18.1023 19.1596 18.9205 16.8939 18.9205ZM15.8644 15.7161H17.1002C17.8555 15.7161 18.1988 15.9888 18.3361 16.3979C18.3361 16.9433 17.8555 17.2161 17.0316 17.2161H15.8644V15.7161ZM16.8943 12.8523C17.5122 12.8523 17.9241 13.0568 17.9241 13.466C17.9241 13.875 17.6495 14.0796 17.1002 14.1478H15.8644V12.8523H16.8943Z" fill="white"/>
<path d="M24.103 18.9205H22.0432V11.1478H24.103V18.9205Z" fill="white"/>
<path fill-rule="evenodd" clip-rule="evenodd" d="M31.9987 18.9205L31.5868 17.625H28.2225L27.7419 18.8523H25.4762L28.4285 11.0796H31.3122L34.2645 18.8523L31.9987 18.9205ZM29.8698 12.8545L29.8705 12.8523L30.8318 15.8523H28.772L29.5959 13.6023C29.7327 13.2626 29.8014 13.0583 29.8698 12.8545Z" fill="white"/>
<path d="M15.4113 34.8H6.59531V37.392H9.63531V46H12.3553V37.392H15.4113V34.8ZM25.0527 34.8L22.4927 38.64L19.9327 34.8H16.8447V46H19.5647V38.608L22.3647 42.88H22.6207L25.4207 38.608V46H28.1407V34.8H25.0527ZM35.7858 46.208C38.5378 46.208 40.6338 44.48 41.2418 42.048H38.3298C37.8818 43.024 36.9698 43.616 35.7858 43.616C33.9298 43.616 32.7298 42.272 32.7298 40.4C32.7298 38.528 33.9298 37.184 35.7858 37.184C36.9698 37.184 37.8818 37.776 38.3298 38.752H41.2418C40.6338 36.32 38.5378 34.592 35.7858 34.592C32.4258 34.592 29.9778 37.104 29.9778 40.4C29.9778 43.696 32.4258 46.208 35.7858 46.208Z" fill="#2B2D35"/>
</svg>
