<svg width="20" height="20" viewBox="0 0 20 20" fill="none" xmlns="http://www.w3.org/2000/svg">
<g clip-path="url(#clip0_2854_61)">
<path d="M9.99992 11.6667V13.3334C8.67384 13.3334 7.40207 13.8602 6.46439 14.7978C5.5267 15.7355 4.99992 17.0073 4.99992 18.3334H3.33325C3.33325 16.5653 4.03563 14.8696 5.28587 13.6193C6.53612 12.3691 8.23181 11.6667 9.99992 11.6667ZM9.99992 10.8334C7.23742 10.8334 4.99992 8.59587 4.99992 5.83337C4.99992 3.07087 7.23742 0.833374 9.99992 0.833374C12.7624 0.833374 14.9999 3.07087 14.9999 5.83337C14.9999 8.59587 12.7624 10.8334 9.99992 10.8334ZM9.99992 9.16671C11.8416 9.16671 13.3333 7.67504 13.3333 5.83337C13.3333 3.99171 11.8416 2.50004 9.99992 2.50004C8.15825 2.50004 6.66659 3.99171 6.66659 5.83337C6.66659 7.67504 8.15825 9.16671 9.99992 9.16671Z" fill="#7A7B85"/>
<path d="M-13.0669 -35.5889C-15.7839 -24.0745 -17.2205 -12.0645 -17.2205 0.278878C-17.2205 47.0933 3.45613 89.0722 36.1784 117.59C16.4384 129.521 -6.69944 136.388 -31.4472 136.388H-119.659C-191.951 136.388 -250.548 77.7855 -250.548 5.49888C-250.548 -2.13135 -246.551 -9.13668 -239.541 -12.1489C-218.426 -21.2158 -166.121 -38.6067 -75.5526 -38.6067C-52.2237 -38.6067 -31.4337 -37.4521 -13.0659 -35.5858L-13.0669 -35.5889Z" fill="#7A7B85"/>
<path fill-rule="evenodd" clip-rule="evenodd" d="M19.1667 15.4166C19.1667 17.4876 17.4877 19.1666 15.4167 19.1666C13.3457 19.1666 11.6667 17.4876 11.6667 15.4166C11.6667 13.3456 13.3457 11.6666 15.4167 11.6666C17.4877 11.6666 19.1667 13.3456 19.1667 15.4166ZM16.5759 15.8854H17.8729C17.6822 16.8901 16.8902 17.6821 15.8855 17.8728V16.5758C16.1988 16.449 16.4491 16.1987 16.5759 15.8854ZM16.5759 14.9479H17.8729C17.6535 13.7912 16.6373 12.9166 15.4167 12.9166C14.1962 12.9166 13.18 13.7912 12.9606 14.9479H14.2576C14.4431 14.4897 14.8922 14.1666 15.4167 14.1666C15.9413 14.1666 16.3904 14.4897 16.5759 14.9479ZM14.2576 15.8854H12.9606C13.1513 16.8901 13.9433 17.6821 14.948 17.8728V16.5758C14.6347 16.449 14.3844 16.1987 14.2576 15.8854Z" fill="#7A7B85"/>
</g>
<defs>
<clipPath id="clip0_2854_61">
<rect width="20" height="20" fill="white"/>
</clipPath>
</defs>
</svg>
